<svg id="Layer_1" data-name="Layer 1" xmlns="http://www.w3.org/2000/svg" viewBox="0 0 458 194.8"><defs><style>.cls-1{fill:#00b4eb;}.cls-2{fill:#0056a2;}.cls-3{fill:#50b748;}.cls-4{isolation:isolate;font-size:42.22px;fill:#fff;font-family:FranklinGothic-Demi, Franklin Gothic Demi;font-weight:300;}.cls-5{letter-spacing:-0.05em;}.cls-6{letter-spacing:0em;}</style></defs><path class="cls-1" d="M21.8,62a4.51,4.51,0,0,1-2.5-.7,5.18,5.18,0,0,1-1.9-7L41.7,12.2a5.13,5.13,0,1,1,8.9,5.1L26.2,59.5A5,5,0,0,1,21.8,62Z"/><path class="cls-2" d="M21.8,102.7a4.51,4.51,0,0,1-2.5-.7,5.18,5.18,0,0,1-1.9-7L41.7,52.9A5.13,5.13,0,1,1,50.6,58L26.2,100.1A4.89,4.89,0,0,1,21.8,102.7Z"/><path class="cls-3" d="M62,102.7a5.09,5.09,0,0,1-2.6-.7,5.18,5.18,0,0,1-1.9-7L81.8,52.9A5.13,5.13,0,1,1,90.7,58L66.4,100.1A4.89,4.89,0,0,1,62,102.7Z"/><circle class="cls-3" cx="60.4" cy="65.6" r="5.1"/><path class="cls-2" d="M103.1,110.6c-4.7-1.4-8.8-2.6-8.8-6s4.2-3.6,6-3.6c3.6,0,8.6,1.6,12.8,4.1l.5.3,3.7-8-.3-.2a30.2,30.2,0,0,0-15.9-4.7c-10.1,0-16.7,5-16.7,12.9,0,9.1,7.9,11.4,14.3,13.2,4.8,1.4,9,2.6,9,6.1,0,2.7-2.5,4.3-7,4.3s-10.4-2.5-14.7-6.3l-.5-.4-3.9,7.9.3.2a29,29,0,0,0,18.7,7.1c10.4,0,17.1-5.2,17.1-13.3C117.5,114.9,109.6,112.5,103.1,110.6Z"/><polygon class="cls-2" points="132.7 128.7 132.7 92.8 123.5 92.8 123.5 137.1 151.4 137.1 151.4 128.7 132.7 128.7"/><polygon class="cls-2" points="180.6 92.8 148.1 92.8 148.1 101.1 161.6 101.1 161.6 137.1 171 137.1 171 101.1 184.8 101.1 180.6 92.8"/><path class="cls-3" d="M246.8,92.6c-13.4,0-23.6,9.6-23.6,22.4,0,12.6,10.4,22.5,23.6,22.5s23.6-9.9,23.6-22.5C270.4,102.2,260.3,92.6,246.8,92.6Zm.1,36.5a14.05,14.05,0,1,1,0-28.1,14.05,14.05,0,0,1,0,28.1Z"/><path class="cls-3" d="M304.7,113.7a9.93,9.93,0,0,0,6.3-9.5c0-7-5.9-11.3-15.4-11.3H275.9v44.3h20.3c10.2,0,16.5-4.8,16.5-12.4C312.6,119.3,309.6,115.2,304.7,113.7Zm-9.6-3.2H285v-9.6h10.3c3.9,0,6.2,1.7,6.2,4.7S299.2,110.5,295.1,110.5Zm-10,8h10.3c4.8,0,7.7,1.9,7.7,5.2a4.49,4.49,0,0,1-2,3.9,10.29,10.29,0,0,1-5.8,1.5H285l.1-10.6Z"/><rect class="cls-3" x="318.8" y="92.8" width="9.3" height="44.3"/><polygon class="cls-3" points="332 92.8 332 101.1 345.5 101.1 345.5 137.1 354.8 137.1 354.8 101.1 368.3 101.1 368.3 92.8 332 92.8"/><polygon class="cls-3" points="381.6 128.9 381.6 119 402.6 119 402.6 110.8 381.6 110.8 381.6 101 405 101 405 92.8 372.3 92.8 372.3 137.1 405.8 137.1 405.8 128.9 381.6 128.9"/><polygon class="cls-3" points="420.6 128.7 420.6 92.8 411.3 92.8 411.3 137.1 439.3 137.1 439.3 128.7 420.6 128.7"/><polygon class="cls-3" points="207.5 92.8 194.2 120 187.6 106.9 178.6 106.9 191.2 132.7 197.2 132.7 209.2 107.8 209.3 137.1 217.8 137.1 217.8 92.8 207.5 92.8"/><text class="cls-4" transform="translate(177 179.34)">S<tspan class="cls-5" x="24.51" y="0">L</tspan><tspan class="cls-6" x="43.48" y="0">T Sencecope</tspan></text></svg>