<?xml version="1.0" encoding="UTF-8"?>
<!DOCTYPE svg PUBLIC "-//W3C//DTD SVG 1.1//EN" "http://www.w3.org/Graphics/SVG/1.1/DTD/svg11.dtd">
<svg xmlns="http://www.w3.org/2000/svg" version="1.1" width="2000px" height="826px" style="shape-rendering:geometricPrecision; text-rendering:geometricPrecision; image-rendering:optimizeQuality; fill-rule:evenodd; clip-rule:evenodd" xmlns:xlink="http://www.w3.org/1999/xlink">
<g><path style="opacity:0.975" fill="#00b4eb" d="M 215.5,43.5 C 233.374,39.4137 243.708,46.247 246.5,64C 246.238,66.5472 245.738,69.0472 245,71.5C 210.586,131.996 175.919,192.33 141,252.5C 130.799,263.058 119.633,264.225 107.5,256C 101.842,249.17 100.009,241.336 102,232.5C 136.414,172.004 171.081,111.67 206,51.5C 208.772,48.2166 211.939,45.5499 215.5,43.5 Z"/></g>
<g><path style="opacity:0.973" fill="#0055a2" d="M 220.5,211.5 C 235.877,211.343 244.544,218.843 246.5,234C 246.238,236.547 245.738,239.047 245,241.5C 209.919,302.664 174.586,363.664 139,424.5C 129.77,432.748 119.937,433.582 109.5,427C 101.537,419.296 99.37,410.13 103,399.5C 137.253,340.663 171.253,281.663 205,222.5C 208.746,216.72 213.913,213.054 220.5,211.5 Z"/></g>
<g><path style="opacity:0.974" fill="#50b747" d="M 387.5,211.5 C 407.268,212.04 415.435,222.04 412,241.5C 377.586,301.996 342.919,362.33 308,422.5C 296.014,434.497 284.014,434.497 272,422.5C 268.719,416.21 267.719,409.543 269,402.5C 303.747,341.337 338.747,280.337 374,219.5C 377.897,215.641 382.397,212.975 387.5,211.5 Z"/></g>
<g><path style="opacity:0.957" fill="#50b747" d="M 278.5,254.5 C 300.406,254.644 308.572,265.31 303,286.5C 294.41,298.21 283.577,300.71 270.5,294C 260.45,284.772 258.95,274.272 266,262.5C 269.579,258.724 273.746,256.057 278.5,254.5 Z"/></g>
<g><path style="opacity:0.961" fill="#0055a2" d="M 424.5,385.5 C 446.832,383.55 465.665,390.55 481,406.5C 486.858,414.906 490.024,424.24 490.5,434.5C 477.833,434.5 465.167,434.5 452.5,434.5C 450.379,421.062 442.379,414.396 428.5,414.5C 413.314,414.848 406.481,422.515 408,437.5C 411.246,444.735 416.746,449.568 424.5,452C 440.614,456.482 456.28,462.149 471.5,469C 489.464,480.789 495.964,497.289 491,518.5C 483.586,540.905 468.086,553.405 444.5,556C 424.599,558.743 406.265,554.743 389.5,544C 377.101,534.664 371.101,522.164 371.5,506.5C 383.518,506.168 395.518,506.501 407.5,507.5C 410.057,521.29 418.39,528.29 432.5,528.5C 443.299,528.527 451.133,523.861 456,514.5C 457.972,502.797 453.472,494.63 442.5,490C 425.878,485.126 409.544,479.459 393.5,473C 372.548,458.807 366.382,439.64 375,415.5C 380.167,405 388,397.167 398.5,392C 406.995,388.607 415.662,386.44 424.5,385.5 Z"/></g>
<g><path style="opacity:0.964" fill="#50b747" d="M 1383.5,385.5 C 1423.07,384.687 1451.24,402.021 1468,437.5C 1480.72,474.264 1473.88,506.764 1447.5,535C 1416.7,559.072 1383.36,563.072 1347.5,547C 1314.54,527.25 1300.04,498.084 1304,459.5C 1309.88,423.627 1330.05,400.127 1364.5,389C 1370.91,387.438 1377.24,386.271 1383.5,385.5 Z M 1384.5,416.5 C 1413.96,416.468 1431.79,430.802 1438,459.5C 1442,482.365 1435.5,501.532 1418.5,517C 1402.67,526.344 1386,528.011 1368.5,522C 1350.67,513.554 1340.84,499.387 1339,479.5C 1335.97,456.571 1343.47,438.071 1361.5,424C 1368.86,420.155 1376.53,417.655 1384.5,416.5 Z"/></g>
<g><path style="opacity:0.961" fill="#0055a2" d="M 883.5,386.5 C 918.298,382.164 946.131,393.83 967,421.5C 970.106,427.379 972.94,433.379 975.5,439.5C 962.167,440.833 948.833,440.833 935.5,439.5C 924.251,421.235 907.918,414.068 886.5,418C 863.245,424.262 850.411,439.428 848,463.5C 845.096,485.829 852.262,503.995 869.5,518C 886.677,527.541 904.011,527.874 921.5,519C 927.796,514.871 932.463,509.371 935.5,502.5C 948.833,501.167 962.167,501.167 975.5,502.5C 961.821,538.304 935.655,556.304 897,556.5C 853,554.816 825.333,532.816 814,490.5C 807.731,456.309 817.231,427.475 842.5,404C 854.837,394.825 868.504,388.992 883.5,386.5 Z"/></g>
<g><path style="opacity:0.961" fill="#50b747" d="M 1192.5,386.5 C 1227.3,382.164 1255.13,393.83 1276,421.5C 1279.11,427.379 1281.94,433.379 1284.5,439.5C 1271.17,440.833 1257.83,440.833 1244.5,439.5C 1233.25,421.235 1216.92,414.068 1195.5,418C 1172.24,424.262 1159.41,439.428 1157,463.5C 1154.1,485.829 1161.26,503.995 1178.5,518C 1195.68,527.541 1213.01,527.874 1230.5,519C 1236.8,514.871 1241.46,509.371 1244.5,502.5C 1257.83,501.167 1271.17,501.167 1284.5,502.5C 1270.82,538.304 1244.65,556.304 1206,556.5C 1162,554.816 1134.33,532.816 1123,490.5C 1116.73,456.309 1126.23,427.475 1151.5,404C 1163.84,394.825 1177.5,388.992 1192.5,386.5 Z"/></g>
<g><path style="opacity:0.959" fill="#0055a2" d="M 519.5,387.5 C 551.833,387.5 584.167,387.5 616.5,387.5C 616.5,397.167 616.5,406.833 616.5,416.5C 595.5,416.5 574.5,416.5 553.5,416.5C 553.5,429.833 553.5,443.167 553.5,456.5C 572.167,456.5 590.833,456.5 609.5,456.5C 609.5,465.5 609.5,474.5 609.5,483.5C 590.833,483.5 572.167,483.5 553.5,483.5C 553.5,497.833 553.5,512.167 553.5,526.5C 574.5,526.5 595.5,526.5 616.5,526.5C 616.5,536.167 616.5,545.833 616.5,555.5C 584.167,555.5 551.833,555.5 519.5,555.5C 519.5,499.5 519.5,443.5 519.5,387.5 Z"/></g>
<g><path style="opacity:0.959" fill="#0055a2" d="M 646.5,387.5 C 658.081,387.179 669.581,387.512 681,388.5C 705.333,425.5 729.667,462.5 754,499.5C 754.5,462.168 754.667,424.835 754.5,387.5C 766.167,387.5 777.833,387.5 789.5,387.5C 789.5,443.5 789.5,499.5 789.5,555.5C 777.814,555.832 766.148,555.499 754.5,554.5C 730,517.5 705.5,480.5 681,443.5C 680.5,480.832 680.333,518.165 680.5,555.5C 669.167,555.5 657.833,555.5 646.5,555.5C 646.5,499.5 646.5,443.5 646.5,387.5 Z"/></g>
<g><path style="opacity:0.959" fill="#0055a2" d="M 1003.5,387.5 C 1035.83,387.5 1068.17,387.5 1100.5,387.5C 1100.5,397.167 1100.5,406.833 1100.5,416.5C 1079.5,416.5 1058.5,416.5 1037.5,416.5C 1037.5,429.833 1037.5,443.167 1037.5,456.5C 1056.17,456.5 1074.83,456.5 1093.5,456.5C 1093.5,465.5 1093.5,474.5 1093.5,483.5C 1074.83,483.5 1056.17,483.5 1037.5,483.5C 1037.5,497.833 1037.5,512.167 1037.5,526.5C 1058.5,526.5 1079.5,526.5 1100.5,526.5C 1100.5,536.167 1100.5,545.833 1100.5,555.5C 1068.17,555.5 1035.83,555.5 1003.5,555.5C 1003.5,499.5 1003.5,443.5 1003.5,387.5 Z"/></g>
<g><path style="opacity:0.959" fill="#50b747" d="M 1642.5,387.5 C 1674.83,387.5 1707.17,387.5 1739.5,387.5C 1739.5,397.167 1739.5,406.833 1739.5,416.5C 1718.5,416.5 1697.5,416.5 1676.5,416.5C 1676.5,429.833 1676.5,443.167 1676.5,456.5C 1695.17,456.5 1713.83,456.5 1732.5,456.5C 1732.5,465.5 1732.5,474.5 1732.5,483.5C 1713.83,483.5 1695.17,483.5 1676.5,483.5C 1676.5,497.833 1676.5,512.167 1676.5,526.5C 1697.5,526.5 1718.5,526.5 1739.5,526.5C 1739.5,536.167 1739.5,545.833 1739.5,555.5C 1707.17,555.5 1674.83,555.5 1642.5,555.5C 1642.5,499.5 1642.5,443.5 1642.5,387.5 Z"/></g>
<g><path style="opacity:0.97" fill="#50b747" d="M 1498.5,388.5 C 1523.17,388.333 1547.84,388.5 1572.5,389C 1608.36,395.2 1623.86,416.366 1619,452.5C 1612.67,473.827 1598.5,486.327 1576.5,490C 1561.87,491.351 1547.2,491.851 1532.5,491.5C 1532.5,512.833 1532.5,534.167 1532.5,555.5C 1521.17,555.5 1509.83,555.5 1498.5,555.5C 1498.5,499.833 1498.5,444.167 1498.5,388.5 Z M 1532.5,416.5 C 1545.23,416.08 1557.89,416.58 1570.5,418C 1580.21,422.065 1585.21,429.398 1585.5,440C 1584.86,452.97 1578.19,460.637 1565.5,463C 1554.51,463.5 1543.51,463.667 1532.5,463.5C 1532.5,447.833 1532.5,432.167 1532.5,416.5 Z"/></g>
<g><path style="opacity:0.933" fill="#0055a2" d="M 992.5,639.5 C 1008.98,638.369 1023.98,642.369 1037.5,651.5C 1034.98,657.916 1031.82,663.916 1028,669.5C 1016.68,662.267 1004.52,659.434 991.5,661C 986.139,663.797 985.139,667.797 988.5,673C 1001.68,677.88 1014.68,683.213 1027.5,689C 1042.39,704.317 1042.06,719.317 1026.5,734C 1021.92,736.973 1016.92,738.973 1011.5,740C 992.766,743.066 975.766,739.066 960.5,728C 958.643,726.818 957.643,725.151 957.5,723C 959.424,716.983 962.258,711.483 966,706.5C 973.897,712.699 982.73,717.199 992.5,720C 999.054,721.081 1005.39,720.414 1011.5,718C 1015.65,713.375 1015.31,709.041 1010.5,705C 999.577,700.803 988.577,696.803 977.5,693C 966.181,686.863 961.348,677.363 963,664.5C 964.739,655.092 969.906,648.258 978.5,644C 983.254,642.358 987.921,640.858 992.5,639.5 Z"/></g>
<g><path style="opacity:0.939" fill="#50b747" d="M 1317.5,639.5 C 1337.02,638.281 1353.52,644.614 1367,658.5C 1378.61,675.376 1380.61,693.376 1373,712.5C 1359.21,735.306 1339.04,744.472 1312.5,740C 1281.5,730.498 1268.33,709.665 1273,677.5C 1280.34,655.99 1295.17,643.323 1317.5,639.5 Z M 1324.5,659.5 C 1343.15,661.48 1353.48,671.813 1355.5,690.5C 1353.58,708.921 1343.41,719.255 1325,721.5C 1301.29,717.744 1291.62,704.078 1296,680.5C 1301.41,667.732 1310.91,660.732 1324.5,659.5 Z"/></g>
<g><path style="opacity:0.925" fill="#0055a2" d="M 1049.5,640.5 C 1056.83,640.5 1064.17,640.5 1071.5,640.5C 1071.5,667.167 1071.5,693.833 1071.5,720.5C 1085.5,720.5 1099.5,720.5 1113.5,720.5C 1113.5,727.167 1113.5,733.833 1113.5,740.5C 1092.17,740.5 1070.83,740.5 1049.5,740.5C 1049.5,707.167 1049.5,673.833 1049.5,640.5 Z"/></g>
<g><path style="opacity:0.938" fill="#0055a2" d="M 1104.5,640.5 C 1129.18,640.167 1153.84,640.5 1178.5,641.5C 1181.5,647.5 1184.5,653.5 1187.5,659.5C 1177.19,660.499 1166.85,660.832 1156.5,660.5C 1156.5,687.167 1156.5,713.833 1156.5,740.5C 1149.17,740.5 1141.83,740.5 1134.5,740.5C 1134.5,713.833 1134.5,687.167 1134.5,660.5C 1124.5,660.5 1114.5,660.5 1104.5,660.5C 1104.5,653.833 1104.5,647.167 1104.5,640.5 Z"/></g>
<g><path style="opacity:0.941" fill="#50b747" d="M 1236.5,640.5 C 1244.5,640.5 1252.5,640.5 1260.5,640.5C 1260.5,673.833 1260.5,707.167 1260.5,740.5C 1253.83,740.5 1247.17,740.5 1240.5,740.5C 1240.67,719.831 1240.5,699.164 1240,678.5C 1231.83,695.5 1223.67,712.5 1215.5,729.5C 1210.53,730.662 1205.53,730.829 1200.5,730C 1190.75,710.665 1181.42,691.165 1172.5,671.5C 1179.51,671.334 1186.51,671.5 1193.5,672C 1198.21,681.246 1203.04,690.412 1208,699.5C 1217.51,679.807 1227.01,660.14 1236.5,640.5 Z"/></g>
<g><path style="opacity:0.94" fill="#50b747" d="M 1388.5,640.5 C 1406.17,640.333 1423.84,640.5 1441.5,641C 1465.06,645.293 1472.56,658.46 1464,680.5C 1461.62,683.045 1459.12,685.378 1456.5,687.5C 1471.91,696.917 1475.75,709.917 1468,726.5C 1461.48,734.513 1452.98,739.013 1442.5,740C 1424.5,740.5 1406.5,740.667 1388.5,740.5C 1388.5,707.167 1388.5,673.833 1388.5,640.5 Z M 1410.5,659.5 C 1420.23,659.109 1429.9,659.609 1439.5,661C 1445.66,664.463 1447,669.297 1443.5,675.5C 1441.87,677.297 1439.87,678.464 1437.5,679C 1428.51,679.5 1419.51,679.666 1410.5,679.5C 1410.5,672.833 1410.5,666.167 1410.5,659.5 Z M 1410.5,698.5 C 1420.55,698.169 1430.55,698.669 1440.5,700C 1448.75,703.086 1450.92,708.586 1447,716.5C 1444.91,717.794 1442.75,718.961 1440.5,720C 1430.55,721.331 1420.55,721.831 1410.5,721.5C 1410.5,713.833 1410.5,706.167 1410.5,698.5 Z"/></g>
<g><path style="opacity:0.933" fill="#50b747" d="M 1484.5,640.5 C 1491.83,640.5 1499.17,640.5 1506.5,640.5C 1506.5,673.833 1506.5,707.167 1506.5,740.5C 1499.17,740.5 1491.83,740.5 1484.5,740.5C 1484.5,707.167 1484.5,673.833 1484.5,640.5 Z"/></g>
<g><path style="opacity:0.932" fill="#50b747" d="M 1513.5,640.5 C 1540.83,640.5 1568.17,640.5 1595.5,640.5C 1595.5,647.167 1595.5,653.833 1595.5,660.5C 1585.5,660.5 1575.5,660.5 1565.5,660.5C 1565.5,687.167 1565.5,713.833 1565.5,740.5C 1558.17,740.5 1550.83,740.5 1543.5,740.5C 1543.5,713.833 1543.5,687.167 1543.5,660.5C 1533.5,660.5 1523.5,660.5 1513.5,660.5C 1513.5,653.833 1513.5,647.167 1513.5,640.5 Z"/></g>
<g><path style="opacity:0.917" fill="#50b747" d="M 1602.5,640.5 C 1627.5,640.5 1652.5,640.5 1677.5,640.5C 1677.5,646.833 1677.5,653.167 1677.5,659.5C 1660.17,659.5 1642.83,659.5 1625.5,659.5C 1625.5,666.5 1625.5,673.5 1625.5,680.5C 1640.83,680.5 1656.17,680.5 1671.5,680.5C 1671.5,687.167 1671.5,693.833 1671.5,700.5C 1656.26,700.824 1641.09,700.491 1626,699.5C 1625.5,706.492 1625.33,713.492 1625.5,720.5C 1643.5,720.5 1661.5,720.5 1679.5,720.5C 1679.5,727.167 1679.5,733.833 1679.5,740.5C 1653.93,740.828 1628.43,740.495 1603,739.5C 1602.5,706.502 1602.33,673.502 1602.5,640.5 Z"/></g>
<g><path style="opacity:0.935" fill="#50b747" d="M 1689.5,640.5 C 1696.83,640.5 1704.17,640.5 1711.5,640.5C 1711.5,667.167 1711.5,693.833 1711.5,720.5C 1725.5,720.5 1739.5,720.5 1753.5,720.5C 1753.5,727.167 1753.5,733.833 1753.5,740.5C 1732.17,740.5 1710.83,740.5 1689.5,740.5C 1689.5,707.167 1689.5,673.833 1689.5,640.5 Z"/></g>
</svg>
